<svg xmlns="http://www.w3.org/2000/svg" width="99" height="15" viewBox="0 0 99 15">
    <path fill="#9B9B9B" fill-rule="evenodd" d="M7.21 9.916c.631 0 1.142.512 1.142 1.142v2.605a1.142 1.142 0 1 1-2.283 0v-2.605c0-.63.511-1.142 1.142-1.142zm10.121-5.318h.224c.57 0 1.03.461 1.03 1.03v3.796c0 .568-.46 1.03-1.03 1.03h-.224a1.03 1.03 0 0 1-1.03-1.03V5.628c0-.569.461-1.03 1.03-1.03zm-6.823 5.318c.631 0 1.142.512 1.142 1.142v2.605a1.142 1.142 0 1 1-2.283 0v-2.605c0-.63.51-1.142 1.141-1.142zm52.523-3.532H79.49c.628 0 1.141.514 1.141 1.142 0 .628-.513 1.142-1.141 1.142H63.518a33.581 33.581 0 0 0-.487-2.284zm-41.749 0h36.544c.222.775.417 1.536.585 2.284H21.282a1.145 1.145 0 0 1-1.142-1.142c0-.628.514-1.142 1.142-1.142zm-20.056 0h12.335c.628 0 1.142.514 1.142 1.142 0 .628-.514 1.142-1.142 1.142H1.226A1.145 1.145 0 0 1 .084 7.526c0-.628.514-1.142 1.142-1.142zm2.878 3.532c.63 0 1.141.512 1.141 1.142v2.605a1.142 1.142 0 1 1-2.283 0v-2.605c0-.63.511-1.142 1.142-1.142zm83.645-5.78a2.4 2.4 0 0 1 2.396-2.397 2.4 2.4 0 0 1 2.398 2.397 2.4 2.4 0 0 1-2.398 2.397 2.4 2.4 0 0 1-2.396-2.397zm0 6.533a2.4 2.4 0 0 1 2.396-2.397 2.4 2.4 0 0 1 2.398 2.397 2.4 2.4 0 0 1-2.398 2.397 2.4 2.4 0 0 1-2.396-2.397zm5.617-3.267a1.95 1.95 0 0 1 1.948-1.947 1.95 1.95 0 0 1 1.947 1.947 1.95 1.95 0 0 1-1.947 1.948 1.95 1.95 0 0 1-1.948-1.948zm-5.748 0a4.128 4.128 0 0 0-1.609 3.267 4.14 4.14 0 0 0 4.136 4.136 4.138 4.138 0 0 0 4.123-3.87c.332.099.682.154 1.046.154A3.69 3.69 0 0 0 99 7.402a3.69 3.69 0 0 0-3.686-3.686c-.364 0-.714.055-1.046.153A4.138 4.138 0 0 0 90.145 0a4.14 4.14 0 0 0-4.136 4.136c0 1.328.633 2.51 1.609 3.266zm-5.49-1.662v3.572a1.142 1.142 0 0 0 2.283 0V5.74a1.142 1.142 0 1 0-2.283 0z"/>
</svg>
