<svg xmlns="http://www.w3.org/2000/svg" version="1.1" viewBox="0 0 226 154">
 <g opacity=".5" fill-rule="evenodd" fill="#FFE5D5">
  <text font-size="24px" font-family="Roboto" style="letter-spacing:3.604;font-variant-numeric:normal;font-variant-ligatures:normal;font-variant-caps:normal;font-feature-settings:normal" letter-spacing="3.604" y="-6.3406553" x="0.97140849" font-weight="300">
   <tspan style="font-variant-numeric:normal;font-variant-ligatures:normal;font-variant-caps:normal;font-feature-settings:normal" font-weight="300" font-size="24px" y="17.659344" x="6.2584085" font-family="Roboto">OWN YOUR KEY</tspan>
  </text>
  <path d="m186.5 38.231c-0.613 0-1.109 0.496-1.109 1.108v2.528a1.108 1.108 0 1 0 2.216 0v-2.528c0-0.612-0.496-1.108-1.108-1.108zm-9.82-5.16h-0.217a1 1 0 0 0 -1 1v3.682a1 1 0 0 0 1 1h0.217a1 1 0 0 0 1 -1v-3.682a1 1 0 0 0 -1 -1zm6.62 5.16c-0.612 0-1.108 0.496-1.108 1.108v2.528a1.107 1.107 0 1 0 2.215 0v-2.528c0-0.612-0.496-1.108-1.107-1.108zm-100.92-3.427h-15.967a1.11 1.11 0 0 0 -1.108 1.108c0 0.61 0.498 1.108 1.108 1.108h15.496a32.58 32.58 0 0 1 0.472 -2.216zm90.47 0l-28.265 0.08c-0.216 0.752-0.404 1.49-0.567 2.216l28.832-0.08a1.11 1.11 0 0 0 1.108 -1.108 1.11 1.11 0 0 0 -1.108 -1.108zm19.458 0h-11.967a1.11 1.11 0 0 0 -1.108 1.108c0 0.61 0.498 1.108 1.108 1.108h11.967c0.61 0 1.108-0.499 1.108-1.108 0-0.61-0.499-1.108-1.108-1.108zm-2.792 3.427c-0.611 0-1.107 0.496-1.107 1.108v2.528a1.108 1.108 0 1 0 2.215 0v-2.528c0-0.612-0.496-1.108-1.108-1.108zm-131.12-5.608a2.328 2.328 0 0 0 -2.325 -2.325 2.328 2.328 0 0 0 -2.326 2.325 2.328 2.328 0 0 0 2.326 2.326 2.328 2.328 0 0 0 2.325 -2.326zm0 6.339a2.328 2.328 0 0 0 -2.325 -2.326 2.328 2.328 0 0 0 -2.326 2.326 2.328 2.328 0 0 0 2.326 2.325 2.328 2.328 0 0 0 2.325 -2.325zm-5.45-3.17c0-1.042-0.848-1.889-1.89-1.889-1.041 0-1.889 0.847-1.889 1.89 0 1.041 0.848 1.889 1.89 1.889 1.041 0 1.889-0.848 1.889-1.89zm5.577 0a4.005 4.005 0 0 1 1.56 3.17c0 2.212-1.8 4.012-4.012 4.012a4.014 4.014 0 0 1 -4 -3.754 3.553 3.553 0 0 1 -1.015 0.149 3.58 3.58 0 0 1 -3.576 -3.577 3.58 3.58 0 0 1 3.576 -3.576c0.353 0 0.693 0.053 1.015 0.148a4.014 4.014 0 0 1 4 -3.753c2.212 0 4.012 1.8 4.012 4.012a4.005 4.005 0 0 1 -1.56 3.17zm5.326-1.612v3.465a1.108 1.108 0 0 1 -2.215 0v-3.465a1.108 1.108 0 1 1 2.215 0z"/>
  <text font-size="19.404" font-weight="300" letter-spacing="2.587" transform="translate(-6 -5)" font-family="Roboto-Light, Roboto">
   <tspan y="49.878" x="91.31">WITH</tspan>
  </text>
  <path d="m101.31 85.762-4.059 6c-3.778-2.147-4.51-4.669-3.79-6.809 1.454-4.326 9.084-7.131 13.614-8.073zm55.583 10.588c-0.846 4.895-6.91 7.426-7.353 6.764-0.263-0.392 7.443-7.29 7.353-6.764zm-77.042 5.411 0.176-1.117c0.294-2.176 1.357-4.777 3.412-4.411 2.735 0.486-0.475 3.566-3.588 5.528zm-9.53 19.058c-3.58-0.895 2.06-4.588 5.706-7.47 0 0-2.3 8.322-5.705 7.47zm149.62-60.612c-14.752 7.047-26.99 18.907-37.086 31.569-3.645 4.571-7.134 9.386-10.32 14.407a158.6 158.6 0 0 0 2.692 -11.624c2.043-10.752 3.503-23.78-3.376-33.183-7.284-9.956-20.51-9.212-30.485-3.828-3.803 2.051-7.826 5.257-11.204 9.11-0.513 0.056-0.954 0.151-1.18 0.28 0 0-3.604 2.537-14.876 6.064l0.14-0.24c1.588-3.353 2.588-5.438 2.294-5.882-2.044-3.082-3.187-2.301-3.187-2.301-1.529 3.705-3.049 7.007-4.166 8.948-5.412 0.94-13.647 2.239-17.411 7.587-1.09 1.55-4.336 9.142 5.176 11.353 0 0-1.912 3.178-2.69 4.508-1.429 2.44-2.468 4.64-3.226 6.572-2.205 0.694-10.837 4.037-10.837 4.037l0.058-1.647c10.943-6.096 6.53-9.815 5.402-10.414-0.753-0.399-1.79-0.691-3.108-0.88 0 0-5.233-0.96-5.94 4.765l-0.06 0.765 0.052 3.071c-6.103 6.267-10.121 9.637-12.107 10.163-0.06-1.588 0.882-4.117 2.823-7.705 1.941-3.589 4-6.765 6.176-9.412-0.118-0.411-1.337-1.777-2.788-1.9-1.06 0.648-5.205 6.044-8.54 13.04-2.152 4.515-1.965 5.919-1.965 5.919-0.06 1.646 2.004 3 4.588 2.705 1.607-0.27 5.224-3.47 12.027-10.395 0.023 1.07-0.06 2.355-0.266 3.866-5.823 4.059-8.686 7.058-9.408 10.616-0.157 0.769-0.04 1.603 1.36 2.145 0.666 0.256 1.512 0.616 2.637 0.709 1.582 0.13 3.036-0.671 4.314-1.642 4.398-3.338 4.626-10.416 4.626-10.416a395.05 395.05 0 0 0 10.358 -5.75c-1.582 4.651-1.427 7.338-1.427 7.338 0.118 2 2.177 3.294 6.118 3.823 2.262 0.31 4.428-1.666 7.507-5.713-0.705 2.006-0.616 2.714-0.616 2.714-0.059 1.646 2.003 3 4.588 2.705 1.27-0.214 3.796-2.259 8.15-6.516-1.777 3.425-2.504 5.478-2.504 5.928-0.058 0.411 3.234 1.16 4.06 0.882 0.278 0.04 1.418-0.862 3.44-2.672 0.964-0.864 6.805-6.148 8.051-7.214 4.209-3.6 4.908-3.29 4.908-3.29-2.882 4.706-4.09 6.744-4.47 9.294-0.479 3.202 1.765 4.412 4.94 3.647 2.164-0.511 4.777-2.451 7.87-5.803-0.146 0.829-0.206 1.646-0.165 2.45l0.059 0.412c0.294 2.058 2.706 3.117 7.235 3.235 2.277 0.002 6.83-3.293 6.882-3.941 0.082-1.015-1.798-1.796-3.412-1.824-2.764 2.06-4.94 3.236-6.528 3.471h-0.236v-0.235c-0.294-1.883 0.471-4.353 2.176-7.47h0.177c2.058 0.293 5.035-0.5 8.529-2.824 6.691-4.451 4.631-8.23 4.244-8.69-1.25-1.485-3.844-1.057-5.126-0.604-0.669 0.237-2.47 1.177-5.295 3.295-3.7 3.34-6.21 6.528-7.553 9.562-2.804 3.386-5.4 5.356-7.759 5.915-0.742 0.176-2.122 0.414-2.156-0.125-0.054-0.85 1.94-4.47 5.705-11-0.53-1.588-1.705-2.412-3.53-2.412h-0.235c-3.646 0.177-6.693 3.294-14.634 9.353l6.588-10.706s0.009-1.67-2.941-2.117a145.96 145.96 0 0 0 -4.854 7.39c-5.991 6.135-9.946 9.442-11.91 9.962-0.059-1.588 0.882-4.117 2.823-7.705 1.941-3.589 4-6.765 6.177-9.412-0.118-0.411-1.338-1.777-2.79-1.9-0.962 0.589-4.473 5.105-7.61 11.176l-0.609 0.723a81.774 81.774 0 0 1 -4.941 5.236c-1.765 1.706-5 3.645-6.176 2.47-0.957-0.954 0.27-5.841 1.587-9.012 1.692-4.07 4.555-9.285 8.589-15.633 4.946-7.226 7.848-11.485 8.717-12.86 2.764-0.675 5.511-1.44 8.196-2.323 1.947-0.654 4.13-1.557 6.146-2.517-3.111 4.948-4.896 10.488-4.014 15.864 0.93 5.675 6.152 9.151 11.73 7.415 2.534-0.788 5.156-2.544 6.212-5.08 0.784-1.882 0.598-3.916-1.686-4.28-1.415-0.226-3.82 1.23-3.221 2.524 0.32 0.697 0.864 1.007 0.925 1.673 0.108 1.161-1.871 3.19-6.255 1.461-1.856-0.732-2.717-2.925-3.17-4.851-1.129-4.794 0.909-10.068 3.212-14.193 5.196-9.307 14.782-16.524 25.857-15.494 9.233 0.859 14.756 9.744 15.99 18.2 1.306 8.939-0.385 18.29-2.424 26.986-1.841 7.858-4.275 15.56-6.913 23.187a94.424 94.424 0 0 0 -3.047 8.598c-0.615 2.055 3.773 0.399 4.25-0.92a691.97 691.97 0 0 0 3.013 -8.491c4.545-11.129 11.123-21.515 18.429-30.943 9.626-12.42 21.339-24.241 35.675-31.09 2.62-1.251 1.57-3.258-1.045-2.01zm-184.83 33.79-2.882-2.706c1.994-0.65 3.623-1.109 5.823-1.941l-2.94 4.646zm-20.822-1.942c-2.234-1.407 1.575-3.739 5.534-3.231 3.612 0.463 5.641 1.525 5.641 1.525-7.724 1.873-10.268 2.278-11.175 1.706zm37.292 32.47c-5.882-14.294-10.235-23-13.058-26.176v-0.235c4.316-6.774 6.514-9.825 7.844-12.138 7.94-2.764 16.331-6.39 23.918-10.92 4.765-2.882 10.337-7.33 12.63-10.565 0-0.765-3.7-0.953-4.394-0.317 0 0-8.328 10.12-29.587 18.176h-0.233s11.663-14.07 22.941-38.207a29.003 29.003 0 0 0 2.763 -12.438c0-3.823-2.938-13.564-12.352-13.282 0 0-10.132-0.976-27.37 10.907-10.692 7.372-17.668 15.374-17.51 19.845 0.048 1.373 5.427 0.715 5.352-1.235 1.118-4.353 5.589-9.588 13.353-15.764 9.705-7.412 17.823-11.117 24.47-11.117 6.646 0 9.94 3.411 9.94 10.176 0 7.353-4.823 18.175-14.529 32.469l-14.058 20.821c-1.64 1.056-8.757 3.494-12.411 4.589-3.647-1.765-6.765-2.648-9.411-2.648h-1.236c-3.94 0-8.406 2-8.305 5.656 0.03 1.082-0.002 5.766 17.776 0.168 0.647 0 2.294 1.588 4.822 4.823 0 0.47-1.293 2.823-3.882 7.058-9.528 18.411-14.293 32.94-14.293 43.587 0 2.529 0.843 4.14 1.942 5.352 2.89 3.187 2.411-0.235 2.411-0.235 0-14.293 5.646-31.293 17-51.116 1.94 2.706 4.352 7.412 7.234 14.059 3 8.411 5.991 11.835 8.53 12.587 2.009 0.596 1.176-0.764 1.176-0.764l-1.471-3.118zm7.489-22.992c-0.216-1-0.293-1.964 0.101-3.16-1.256 1.778-2.338 3.052-3.328 4.246-1.456 1.759-3.857 6.382-5.201 9.3-0.548 1.19-0.653 1.693-1.683 1.193-0.735-0.356-1.45-0.522-1.326-1.101 1.752-8.231 3.635-12.75 5.084-15.974-3.597 3.327-3.843 3.707-4.155 3.774s-0.553-0.142-0.567-0.204c-0.068-0.313 0.364-0.733 0.364-0.733 1.173-1.234 4.6-5.047 5.725-5.29 1.187-0.256 3.033 0.72 3.289 1.907-0.052 0.665-0.333 1.183-0.711 1.853l-2.518 4.85c2.223-3.24 3.72-5 4.709-5.95 1.401-1.346 2.158-1.473 2.407-1.527 0.812-0.175 2.532 0.827 2.735 1.764 0.121 0.562-0.493 1.349-1.179 2.412-0.673 1.126-1.77 2.856-0.89 3.87 1.107 1.275 0.29 1.23 0.228 1.244-1.437 0.31-2.761-0.974-3.084-2.474zm59.088-10.687c0.63 0.68 0.533 1.127 0.257 1.532-0.178 0.26-0.73 0.992-0.934 1.185-0.271 0.256-0.695 0.47-1.196 0.08a11.536 11.536 0 0 1 -1.792 -1.731c-0.216-0.254-0.419-0.673 0-1.504 0.293-0.582 0.625-1.113 0.625-1.113s0.438-0.77 1.111-0.34c0.672 0.43 1.103 1 1.93 1.891zm-41.818 0c0.63 0.68 0.533 1.127 0.256 1.532-0.177 0.26-0.728 0.992-0.933 1.185-0.272 0.256-0.696 0.47-1.197 0.08a11.497 11.497 0 0 1 -1.791 -1.731c-0.216-0.254-0.418-0.673 0-1.504 0.293-0.582 0.625-1.113 0.625-1.113s0.438-0.77 1.11-0.34c0.674 0.43 1.103 1 1.93 1.891z"/>
 </g>
</svg>
