<?xml version="1.0" encoding="UTF-8"?>
<svg width="123px" height="14px" viewBox="0 0 123 14" version="1.1" xmlns="http://www.w3.org/2000/svg" xmlns:xlink="http://www.w3.org/1999/xlink">
    <!-- Generator: sketchtool 40.2 (33826) - http://www.bohemiancoding.com/sketch -->
    <title>59AAC737-3340-468B-8694-122548586BC8</title>
    <desc>Created with sketchtool.</desc>
    <defs></defs>
    <g id="Page-1" stroke="none" stroke-width="1" fill="none" fill-rule="evenodd" opacity="0.3">
        <g id="Main-UX-Copy" transform="translate(-1280.000000, -4011.000000)" fill="#FFFFFF">
            <g id="Group-11" transform="translate(1280.000000, 3995.000000)">
                <g id="Page-1" transform="translate(0.000000, 16.000000)">
                    <polygon id="Fill-1" points="14.8271702 13.1275375 15.6995106 13.1275375 15.6995106 0.0034125 14.8271702 0.0034125"></polygon>
                    <polygon id="Fill-2" points="72.0570638 0.003325 72.0544468 13.12745 72.9267872 13.12745 72.9294043 0.003325"></polygon>
                    <polygon id="Fill-3" points="0 0.003325 0 13.128325 9.17091489 13.128325 9.17091489 12.253325 0.872340426 12.253325 0.872340426 0.003325"></polygon>
                    <polygon id="Fill-4" points="95.703683 0.003325 95.703683 13.128325 104.87547 13.128325 104.87547 12.253325 96.5760234 12.253325 96.5760234 0.003325"></polygon>
                    <polygon id="Fill-5" points="56.9288489 0.006475 56.9279766 13.127975 57.800317 13.127975 57.8011894 0.881475 66.0910404 0.881475 66.0910404 0.006475"></polygon>
                    <polygon id="Fill-6" points="57.364234 7.0051625 66.0911277 7.0051625 66.0911277 6.1301625 57.364234 6.1301625"></polygon>
                    <polygon id="Fill-7" points="41.5556809 13.1284125 50.719617 13.1284125 50.719617 12.2534125 41.5556809 12.2534125"></polygon>
                    <polygon id="Fill-8" points="41.5556809 7.0051625 50.719617 7.0051625 50.719617 6.1301625 41.5556809 6.1301625"></polygon>
                    <polygon id="Fill-9" points="41.5556809 0.8810375 50.719617 0.8810375 50.719617 0.0060375 41.5556809 0.0060375"></polygon>
                    <polygon id="Fill-10" points="80.3251064 13.1284125 89.4890426 13.1284125 89.4890426 12.2534125 80.3251064 12.2534125"></polygon>
                    <polygon id="Fill-11" points="80.3251064 7.0051625 89.4890426 7.0051625 89.4890426 6.1301625 80.3251064 6.1301625"></polygon>
                    <polygon id="Fill-12" points="80.3251064 0.8810375 89.4890426 0.8810375 89.4890426 0.0060375 80.3251064 0.0060375"></polygon>
                    <polygon id="Fill-13" points="22.4331064 13.1275375 23.3054468 13.1275375 23.3054468 0.0034125 22.4331064 0.0034125"></polygon>
                    <polygon id="Fill-14" points="23.3639809 0.000175 22.6992574 0.565425 33.309534 13.130425 33.9751298 12.565175"></polygon>
                    <polygon id="Fill-15" points="33.4588787 0.003325 33.4606234 13.12745 34.3329638 13.12745 34.3312191 0.003325"></polygon>
                    <polygon id="Fill-16" points="110.48017 12.6909125 111.353383 12.6909125 111.353383 0.4444125 110.48017 0.4444125"></polygon>
                    <path d="M111.35286,12.2534125 L115.845413,12.2534125 C118.971009,12.2534125 121.513881,9.7027875 121.513881,6.5676625 C121.513881,3.4325375 118.971009,0.8819125 115.845413,0.8819125 L111.35286,0.8819125 L111.35286,12.2534125 Z M115.845413,13.1284125 L110.480519,13.1284125 L110.480519,0.0069125 L115.845413,0.0069125 C119.45254,0.0069125 122.386221,2.9504125 122.386221,6.5676625 C122.386221,10.1849125 119.45254,13.1284125 115.845413,13.1284125 L115.845413,13.1284125 Z" id="Fill-17"></path>
                </g>
            </g>
        </g>
    </g>
</svg>