<svg xmlns="http://www.w3.org/2000/svg" width="161" height="65" viewBox="0 0 161 65">
    <g fill="#FFE5D5" fill-rule="evenodd">
        <path d="M117.442 58.933c-.63 0-1.142.511-1.142 1.142v2.605a1.142 1.142 0 1 0 2.283 0v-2.605c0-.63-.51-1.142-1.141-1.142zm-10.12-5.318h-.225a1.03 1.03 0 0 0-1.03 1.03v3.796c0 .568.461 1.03 1.03 1.03h.224a1.03 1.03 0 0 0 1.03-1.03v-3.796c0-.569-.461-1.03-1.03-1.03zm6.822 5.318c-.63 0-1.142.511-1.142 1.142v2.605a1.142 1.142 0 1 0 2.284 0v-2.605c0-.63-.511-1.142-1.142-1.142zm-52.522-3.532h-16.46c-.627 0-1.141.514-1.141 1.142 0 .628.514 1.141 1.142 1.141h15.972c.129-.735.292-1.497.487-2.283zm41.748 0H66.827a40.592 40.592 0 0 0-.586 2.283h37.13c.627 0 1.141-.513 1.141-1.141s-.514-1.142-1.142-1.142zm20.056 0h-12.335c-.628 0-1.142.514-1.142 1.142 0 .628.514 1.141 1.142 1.141h12.335c.628 0 1.142-.513 1.142-1.141s-.514-1.142-1.142-1.142zm-2.877 3.532c-.63 0-1.142.511-1.142 1.142v2.605a1.142 1.142 0 1 0 2.284 0v-2.605c0-.63-.512-1.142-1.142-1.142zm-83.645-5.78a2.4 2.4 0 0 0-2.397-2.397 2.4 2.4 0 0 0-2.397 2.397 2.4 2.4 0 0 0 2.397 2.397 2.4 2.4 0 0 0 2.397-2.397zm0 6.533a2.4 2.4 0 0 0-2.397-2.397 2.4 2.4 0 0 0-2.397 2.397 2.4 2.4 0 0 0 2.397 2.397 2.4 2.4 0 0 0 2.397-2.397zm-5.618-3.267a1.95 1.95 0 0 0-1.947-1.947 1.95 1.95 0 0 0-1.948 1.947 1.95 1.95 0 0 0 1.948 1.948 1.95 1.95 0 0 0 1.947-1.948zm5.749 0a4.128 4.128 0 0 1 1.608 3.267 4.14 4.14 0 0 1-4.136 4.136 4.138 4.138 0 0 1-4.123-3.87 3.662 3.662 0 0 1-1.045.153 3.69 3.69 0 0 1-3.687-3.686 3.69 3.69 0 0 1 3.687-3.686c.363 0 .714.055 1.045.153a4.138 4.138 0 0 1 4.123-3.87 4.14 4.14 0 0 1 4.136 4.137c0 1.328-.632 2.51-1.608 3.266zm5.49-1.662v3.572a1.142 1.142 0 0 1-2.284 0v-3.572a1.142 1.142 0 1 1 2.284 0z"/>
        <path d="M103.192 32.307l-1.928 2.851c-1.796-1.02-2.143-2.218-1.802-3.235.692-2.056 4.317-3.389 6.47-3.836l-2.74 4.22zm26.41 5.031c-.4 2.326-3.282 3.529-3.493 3.214-.125-.186 3.537-3.464 3.494-3.214zM92.996 39.91l.084-.531c.14-1.034.645-2.27 1.621-2.097 1.3.232-.225 1.695-1.705 2.628zm-4.527 9.055c-1.701-.425.978-2.18 2.71-3.55 0 0-1.093 3.955-2.71 3.55zm71.096-28.8c-7.01 3.348-12.825 8.984-17.622 15a78.35 78.35 0 0 0-4.904 6.846 75.358 75.358 0 0 0 1.279-5.523c.97-5.11 1.664-11.3-1.604-15.768-3.461-4.73-9.746-4.377-14.485-1.819-1.807.975-3.72 2.498-5.324 4.33-.244.026-.454.07-.56.132 0 0-1.713 1.206-7.07 2.882l.067-.115c.755-1.593 1.23-2.583 1.09-2.794-.971-1.465-1.514-1.094-1.514-1.094-.727 1.761-1.449 3.33-1.98 4.252-2.571.447-6.484 1.064-8.273 3.605-.518.736-2.06 4.344 2.46 5.395 0 0-.909 1.51-1.279 2.142a22.373 22.373 0 0 0-1.532 3.122c-1.048.33-5.15 1.919-5.15 1.919l.028-.783c5.2-2.896 3.103-4.664 2.567-4.948-.358-.19-.85-.329-1.477-.418 0 0-2.487-.457-2.823 2.264l-.028.363.025 1.46c-2.9 2.977-4.81 4.579-5.753 4.829-.028-.755.419-1.957 1.341-3.662.923-1.705 1.9-3.214 2.935-4.472-.056-.195-.636-.844-1.325-.902-.503.307-2.473 2.871-4.058 6.196-1.022 2.145-.934 2.812-.934 2.812-.028.782.952 1.425 2.18 1.285.764-.128 2.483-1.649 5.716-4.94.01.51-.029 1.12-.127 1.838-2.767 1.928-4.127 3.354-4.47 5.044-.075.365-.02.762.646 1.02.316.121.718.292 1.253.336.751.062 1.442-.318 2.05-.78 2.09-1.586 2.198-4.95 2.198-4.95a187.71 187.71 0 0 0 4.921-2.732c-.751 2.21-.677 3.487-.677 3.487.056.95 1.034 1.566 2.907 1.817 1.074.147 2.104-.792 3.567-2.715-.336.953-.293 1.29-.293 1.29-.028.782.952 1.425 2.18 1.285.603-.101 1.804-1.073 3.872-3.096-.844 1.628-1.19 2.603-1.19 2.817-.027.195 1.537.551 1.93.42.132.018.674-.41 1.634-1.27.458-.411 3.234-2.922 3.826-3.428 2-1.71 2.332-1.564 2.332-1.564-1.37 2.236-1.943 3.205-2.124 4.416-.228 1.522.838 2.097 2.348 1.733 1.028-.243 2.27-1.164 3.739-2.757-.07.394-.098.782-.079 1.164l.028.196c.14.978 1.286 1.481 3.438 1.537 1.082 0 3.246-1.565 3.27-1.873.04-.482-.854-.853-1.62-.866-1.314.978-2.348 1.537-3.103 1.649h-.112v-.112c-.14-.894.224-2.068 1.034-3.55h.084c.978.14 2.393-.237 4.053-1.34 3.18-2.116 2.2-3.912 2.016-4.13-.594-.706-1.826-.502-2.435-.287-.318.112-1.174.559-2.516 1.565-1.758 1.588-2.95 3.102-3.59 4.544-1.331 1.609-2.565 2.545-3.686 2.81-.352.084-1.008.197-1.025-.059-.025-.404.923-2.124 2.711-5.227-.251-.754-.81-1.146-1.676-1.146h-.112c-1.733.084-3.181 1.566-6.954 4.444l3.13-5.086s.004-.794-1.397-1.006a69.353 69.353 0 0 0-2.307 3.511c-2.846 2.915-4.726 4.487-5.659 4.734-.028-.755.42-1.957 1.342-3.662.922-1.705 1.9-3.214 2.935-4.472-.057-.195-.636-.844-1.326-.902-.457.279-2.126 2.425-3.616 5.31l-.29.343a38.856 38.856 0 0 1-2.347 2.488c-.839.81-2.376 1.732-2.935 1.174-.454-.453.128-2.776.754-4.282.804-1.934 2.165-4.412 4.081-7.429 2.35-3.433 3.73-5.457 4.142-6.11a51.767 51.767 0 0 0 3.895-1.104c.925-.31 1.963-.74 2.92-1.196-1.478 2.351-2.326 4.984-1.907 7.538.442 2.697 2.923 4.348 5.574 3.523 1.203-.374 2.45-1.209 2.951-2.413.373-.895.284-1.86-.8-2.034-.673-.107-1.816.584-1.532 1.2.153.33.411.478.44.794.052.552-.889 1.516-2.972.695-.882-.348-1.29-1.39-1.506-2.306-.537-2.278.432-4.783 1.526-6.744 2.469-4.422 7.024-7.851 12.286-7.362 4.388.408 7.012 4.63 7.598 8.648.62 4.248-.183 8.69-1.152 12.823-.875 3.734-2.031 7.393-3.285 11.018a44.867 44.867 0 0 0-1.447 4.085c-.293.976 1.792.19 2.019-.438.484-1.34.964-2.684 1.432-4.034 2.16-5.288 5.285-10.223 8.757-14.703 4.573-5.902 10.139-11.518 16.951-14.772 1.245-.595.746-1.549-.496-.955zM44.02 39.873c-.085-.478-.106-.937.102-1.499-.627.824-1.162 1.41-1.652 1.96-.721.81-2.73 4.359-3.418 5.721-.28.556-.338.793-.819.538-.343-.181-.68-.272-.611-.545.065-.26.134-.516.206-.772-1.709.926-3.053 1.397-4.035 1.397-2.32-.307-3.493-1.062-3.493-2.263v-.476c0-2.096 1.445-4.894 5.003-7.574 1.532-1.155 2.296-1.055 2.46-1.034.63.08 1.085.31 1.381.594.296.284.762 1.1.17 1.877-.349.46-.845 1.092-1.636 1.777-.272.131-1.666-.474-1.705-.838-.042-.398.89-1.16 1.493-1.714.585-.539.23-.394.212-.382-2.423 1.541-3.742 2.947-4.485 4.535-1.036 2.212-1.188 3.318-1.188 3.318-.157 1.14.67 1.146.67 1.146.277 0 .562-.019.855-.057 1.403-.184 2.996-.81 4.777-1.866a45.534 45.534 0 0 1 1.96-4.845c.33-.706 1.018-2.274 1.454-2.835.022-.008.047-.018.066-.022.569-.101 1.428.393 1.53.961-.036.315-.178.557-.37.869l-1.277 2.26c1.111-1.502 1.851-2.312 2.337-2.746.688-.615 1.05-.663 1.17-.684.387-.07 1.187.435 1.268.884.048.269-.257.632-.601 1.125-.338.524-.89 1.326-.489 1.823.505.624.117.589.088.594-.688.123-1.294-.51-1.423-1.227zm10.867-7.95c.69-2.056 4.316-3.389 6.469-3.836l-2.74 4.22-1.928 2.851c-1.795-1.02-2.143-2.218-1.8-3.235zm5.155 10.138a38.85 38.85 0 0 1-2.348 2.488c-.838.81-1.978 1.447-2.537.889-.454-.454-.27-2.49.357-3.997.804-1.934 2.164-4.412 4.08-7.429 2.351-3.433 3.73-5.457 4.143-6.11a51.767 51.767 0 0 0 3.894-1.104c2.508-.842 5.847-2.554 6.157-3.32.079-.354-1.633-.337-2.02-.115 0 0-1.713 1.206-7.07 2.882l.067-.115c.755-1.593 1.23-2.583 1.09-2.794-.97-1.465-1.514-1.094-1.514-1.094-.726 1.761-1.448 3.33-1.98 4.252-2.57.447-6.484 1.064-8.272 3.605-.518.736-2.06 4.344 2.46 5.395 0 0-3.062 4.104-3.78 9.135-.25 1.76.63 2.091 2.913 2.212 1.508.029 2.47-1.158 4.398-3.841.775-1.143.689-1.805-.038-.939zm11.695-5.84l-1.37-1.286c.948-.309 1.722-.527 2.767-.923l-1.397 2.208zm-9.894-.923c-1.061-.669.748-1.777 2.63-1.535 1.716.22 2.68.724 2.68.724-3.67.89-4.88 1.082-5.31.81zm17.72 15.428c-2.795-6.792-4.864-10.928-6.205-12.438v-.111c2.05-3.219 3.095-4.668 3.727-5.768 3.773-1.313 7.76-3.036 11.365-5.188 2.264-1.37 4.912-3.484 6.002-5.02 0-.364-1.759-.453-2.088-.151 0 0-3.958 4.809-14.059 8.636h-.112s5.542-6.685 10.901-18.154a13.781 13.781 0 0 0 1.313-5.91c0-1.817-1.396-6.445-5.87-6.311 0 0-4.814-.464-13.004 5.182-5.081 3.503-8.395 7.306-8.32 9.43.022.652 2.578.34 2.543-.587.53-2.068 2.655-4.556 6.344-7.49 4.612-3.522 8.469-5.283 11.627-5.283 3.158 0 4.723 1.621 4.723 4.835 0 3.494-2.291 8.637-6.903 15.428l-6.68 9.894c-.779.502-4.16 1.66-5.897 2.18-1.733-.838-3.214-1.257-4.472-1.257h-.587c-1.872 0-3.994.95-3.947 2.687.015.514 0 2.74 8.447.08.307 0 1.09.755 2.292 2.291 0 .224-.615 1.342-1.845 3.354-4.528 8.749-6.792 15.652-6.792 20.711 0 1.202.4 1.968.923 2.544 1.373 1.514 1.146-.112 1.146-.112 0-6.792 2.683-14.87 8.077-24.288.922 1.285 2.068 3.521 3.438 6.68 1.425 3.996 2.847 5.623 4.053 5.98.954.284.558-.363.558-.363l-.698-1.481zm3.558-10.924c-.102-.476-.14-.934.048-1.502-.597.845-1.11 1.45-1.581 2.018-.692.835-1.833 3.032-2.472 4.418-.26.565-.31.805-.8.567-.349-.169-.688-.248-.63-.523.833-3.91 1.728-6.058 2.417-7.59-1.71 1.58-1.827 1.761-1.975 1.793-.148.032-.263-.067-.27-.097-.031-.148.174-.348.174-.348.557-.586 2.185-2.398 2.72-2.514.564-.121 1.441.342 1.563.906-.025.316-.159.563-.338.88l-1.196 2.305c1.056-1.54 1.767-2.376 2.237-2.827.666-.64 1.025-.7 1.144-.725.386-.083 1.203.392 1.3.838.057.267-.235.64-.56 1.146-.32.535-.842 1.357-.424 1.839.526.606.138.584.109.59-.683.148-1.312-.462-1.466-1.174zm28.077-5.078c.299.322.253.535.122.727a5.764 5.764 0 0 1-.444.563c-.129.122-.33.224-.568.038a5.481 5.481 0 0 1-.852-.822c-.103-.12-.199-.32 0-.715.14-.276.297-.529.297-.529s.208-.366.528-.161c.32.204.524.475.917.899zm-19.87 0c.298.322.253.535.121.727a5.764 5.764 0 0 1-.443.563c-.13.122-.331.224-.569.038a5.463 5.463 0 0 1-.851-.822c-.103-.12-.199-.32 0-.715.139-.276.297-.529.297-.529s.208-.366.527-.161c.32.204.524.475.917.899zm-61.14 2.614c-.402 2.326-3.283 3.529-3.494 3.214-.124-.186 3.537-3.464 3.494-3.214zm-4.584 4.78c.979.14 2.393-.238 4.053-1.342 3.18-2.115 2.2-3.91 2.017-4.129-.595-.706-1.827-.502-2.436-.287-.318.112-1.174.559-2.516 1.565-2.33 2.104-3.67 4.08-4.037 5.926-.404-2.723-1.644-5.862-3.738-9.42-2.733-4.112-7.752-14.183 1.117-20.348 3.85-2.676 8.26-2.344 9.688-1.082.938.83 1.56 1.988 1.52 3.375 0 0 .087 5.079-3.216 9.614-.78 1.069-4.83 5.018-6.534 4.964-.324-.01-.48.011-.507.347-.025.32.366.767.904.77 4.138.028 8.483-6.029 9.486-7.94 1.123-2.138 1.684-4.223 1.684-6.245v-.084c0-3.015-1.18-7.843-7.993-7.463-1.48.083-3.186.475-5.059 1.398-5.17 2.99-7.77 6.791-7.77 11.347 0 2.292.922 4.92 2.795 7.882 3.83 5.785 5.73 10.397 5.73 13.835v1.062c0 2.879-1.164 5.663-3.774 7.993-2.977 2.659-13.85 5.069-14.365-4.304-.12-2.192.419-4.444 1.285-6.372 2.236-4.053 4.835-6.065 7.77-6.065 0 0 .746.268.643 1.202-.059.527.635 1.508 1.845 1.173.11-.03.297-.2.335-.307.042-.119.742-1.225-1.38-2.684-1.484-1.02-4.04-.7-6.164.74-2.252 1.528-5.16 4.257-6.448 9.434-3.295 13.233 9.37 13.248 14.306 11.311 5.866-2.302 7.954-6.661 7.986-12.11.44.623 1.511.95 3.22.995 1.132 0 3.246-1.565 3.27-1.873.04-.482-.854-.853-1.62-.866-1.314.978-2.348 1.537-3.103 1.649h-.112v-.112c-.14-.894.224-2.068 1.034-3.55h.084zm26.6-4.78c-.4 2.326-3.282 3.529-3.493 3.214-.125-.186 3.537-3.464 3.494-3.214zm-4.583 4.78c.978.14 2.392-.238 4.053-1.342 3.179-2.115 2.2-3.91 2.016-4.129-.594-.706-1.826-.502-2.436-.287-.317.112-1.173.559-2.515 1.565-2.879 2.6-4.248 5.003-4.137 7.211l.028.196c.14.978 1.286 1.481 3.438 1.537.824 0 3.245-1.565 3.27-1.873.04-.482-.854-.853-1.62-.866-1.315.978-2.349 1.537-3.103 1.649h-.112v-.112c-.14-.894.224-2.068 1.034-3.55h.084z"/>
    </g>
</svg>