<?xml version="1.0" encoding="UTF-8"?>
<svg width="227px" height="154px" viewBox="0 0 227 154" version="1.1" xmlns="http://www.w3.org/2000/svg" xmlns:xlink="http://www.w3.org/1999/xlink">
    <!-- Generator: Sketch 48 (47235) - http://www.bohemiancoding.com/sketch -->
    <title>own</title>
    <desc>Created with Sketch.</desc>
    <defs></defs>
    <g id="MAIN-v2.0-Copy" stroke="none" stroke-width="1" fill="none" fill-rule="evenodd" transform="translate(-601.000000, -651.000000)" opacity="0.5">
        <g id="own" transform="translate(595.000000, 646.000000)" fill="#FFE5D5">
            <g id="Group-18-Copy-3" transform="translate(0.000000, 0.000000)">
                <path d="M21.4885422,15.6548994 C21.4885422,17.3779334 21.1906589,18.8909232 20.5948835,20.1939141 C19.9991081,21.496905 19.1483192,22.49985 18.0424914,23.2027793 C16.9366636,23.9057086 15.6594088,24.257168 14.2106887,24.257168 C12.02475,24.257168 10.258881,23.4749566 8.91302852,21.9105103 C7.56717609,20.346064 6.89425996,18.2351647 6.89425996,15.577749 L6.89425996,13.6489893 C6.89425996,11.9430999 7.19642931,10.4322532 7.80077705,9.11640381 C8.4051248,7.80055446 9.26019975,6.78903723 10.3660275,6.08182178 C11.4718553,5.37460633 12.7448241,5.02100391 14.1849719,5.02100391 C15.6251197,5.02100391 16.8959454,5.36817719 17.997487,6.06253418 C19.0990287,6.75689117 19.9498175,7.73840577 20.5498791,9.00710742 C21.1499407,10.2758091 21.4628253,11.7459379 21.4885422,13.4175381 L21.4885422,15.6548994 Z M19.9069592,13.6232725 C19.9069592,11.3687553 19.3969145,9.60288627 18.3768098,8.3256123 C17.3567051,7.04833834 15.9594397,6.40971094 14.1849719,6.40971094 C12.4447933,6.40971094 11.0582432,7.05048139 10.02528,8.3320415 C8.99231681,9.61360162 8.47584297,11.4030442 8.47584297,13.7004229 L8.47584297,15.6548994 C8.47584297,17.8751273 8.99017377,19.6345672 10.0188508,20.933272 C11.0475278,22.2319767 12.4447931,22.8813193 14.2106887,22.8813193 C16.0023011,22.8813193 17.3995665,22.2405489 18.4025266,20.9589888 C19.4054867,19.6774287 19.9069592,17.8922722 19.9069592,15.6034658 L19.9069592,13.6232725 Z M32.5371546,18.9466494 L33.1157826,21.8526475 L33.8229945,19.0752334 L37.8862484,5.27817187 L39.3135306,5.27817187 L43.3253509,19.0752334 L44.0197044,21.8783643 L44.6369076,18.9466494 L48.0186663,5.27817187 L49.6388245,5.27817187 L44.8426419,24 L43.3253509,24 L39.0820794,9.35428418 L38.6063187,7.5026748 L38.1434163,9.35428418 L33.7972777,24 L32.2799867,24 L27.4966624,5.27817187 L29.1168206,5.27817187 L32.5371546,18.9466494 Z M70.2283686,24 L68.6467856,24 L57.8843061,7.97843555 L57.8843061,24 L56.2898647,24 L56.2898647,5.27817187 L57.8843061,5.27817187 L68.659644,21.3125947 L68.659644,5.27817187 L70.2283686,5.27817187 L70.2283686,24 Z M94.0871941,15.4877402 L99.8091814,5.27817187 L101.635074,5.27817187 L94.8715564,16.9535977 L94.8715564,24 L93.2899734,24 L93.2899734,16.9535977 L86.5393142,5.27817187 L88.4166404,5.27817187 L94.0871941,15.4877402 Z M121.427397,15.6548994 C121.427397,17.3779334 121.129514,18.8909232 120.533739,20.1939141 C119.937963,21.496905 119.087174,22.49985 117.981347,23.2027793 C116.875519,23.9057086 115.598264,24.257168 114.149544,24.257168 C111.963605,24.257168 110.197736,23.4749566 108.851884,21.9105103 C107.506031,20.346064 106.833115,18.2351647 106.833115,15.577749 L106.833115,13.6489893 C106.833115,11.9430999 107.135284,10.4322532 107.739632,9.11640381 C108.34398,7.80055446 109.199055,6.78903723 110.304883,6.08182178 C111.41071,5.37460633 112.683679,5.02100391 114.123827,5.02100391 C115.563975,5.02100391 116.834801,5.36817719 117.936342,6.06253418 C119.037884,6.75689117 119.888673,7.73840577 120.488734,9.00710742 C121.088796,10.2758091 121.40168,11.7459379 121.427397,13.4175381 L121.427397,15.6548994 Z M119.845814,13.6232725 C119.845814,11.3687553 119.33577,9.60288627 118.315665,8.3256123 C117.29556,7.04833834 115.898295,6.40971094 114.123827,6.40971094 C112.383648,6.40971094 110.997098,7.05048139 109.964135,8.3320415 C108.931172,9.61360162 108.414698,11.4030442 108.414698,13.7004229 L108.414698,15.6548994 C108.414698,17.8751273 108.929029,19.6345672 109.957706,20.933272 C110.986383,22.2319767 112.383648,22.8813193 114.149544,22.8813193 C115.941156,22.8813193 117.338422,22.2405489 118.341382,20.9589888 C119.344342,19.6774287 119.845814,17.8922722 119.845814,15.6034658 L119.845814,13.6232725 Z M141.914074,5.27817187 L141.914074,18.0594199 C141.905502,19.3195493 141.626906,20.4167883 141.078278,21.3511699 C140.529651,22.2855515 139.756011,23.0034716 138.757337,23.5049517 C137.758663,24.0064317 136.612134,24.257168 135.317716,24.257168 C133.346085,24.257168 131.766661,23.7192637 130.579396,22.643439 C129.392131,21.5676142 128.777077,20.078198 128.734216,18.1751455 L128.734216,5.27817187 L130.30294,5.27817187 L130.30294,17.9436943 C130.30294,19.5209991 130.75298,20.7446778 131.653072,21.6147671 C132.553165,22.4848564 133.7747,22.9198945 135.317716,22.9198945 C136.860731,22.9198945 138.080124,22.4827134 138.97593,21.6083379 C139.871736,20.7339624 140.319633,19.5167129 140.319633,17.9565527 L140.319633,5.27817187 L141.914074,5.27817187 Z M156.923073,16.2078105 L151.483971,16.2078105 L151.483971,24 L149.889529,24 L149.889529,5.27817187 L155.971552,5.27817187 C157.9689,5.27817187 159.529037,5.76250004 160.652009,6.7311709 C161.774981,7.69984176 162.336459,9.05424618 162.336459,10.7944248 C162.336459,11.994548 161.985,13.0532122 161.28207,13.9704492 C160.579141,14.8876862 159.636201,15.5220275 158.453223,15.8734922 L163.13368,23.8328408 L163.13368,24 L161.44923,24 L156.923073,16.2078105 Z M151.483971,14.8576787 L156.331587,14.8576787 C157.660295,14.8576787 158.727531,14.4805028 159.533328,13.7261396 C160.339125,12.9717765 160.742018,11.994548 160.742018,10.7944248 C160.742018,9.4742893 160.321981,8.4499138 159.481895,7.72126758 C158.641808,6.99262136 157.463134,6.62830371 155.945835,6.62830371 L151.483971,6.62830371 L151.483971,14.8576787 Z M184.472259,14.7033779 L181.836287,17.3007744 L181.836287,24 L180.254704,24 L180.254704,5.27817187 L181.836287,5.27817187 L181.836287,15.3720146 L191.428653,5.27817187 L193.421704,5.27817187 L185.578081,13.6104141 L194.026049,24 L192.097289,24 L184.472259,14.7033779 Z M210.809507,15.0248379 L202.052938,15.0248379 L202.052938,22.6627266 L212.121064,22.6627266 L212.121064,24 L200.471355,24 L200.471355,5.27817187 L212.056772,5.27817187 L212.056772,6.62830371 L202.052938,6.62830371 L202.052938,13.6875645 L210.809507,13.6875645 L210.809507,15.0248379 Z M224.545525,15.4877402 L230.267512,5.27817187 L232.093405,5.27817187 L225.329887,16.9535977 L225.329887,24 L223.748304,24 L223.748304,16.9535977 L216.997645,5.27817187 L218.874971,5.27817187 L224.545525,15.4877402 Z" id="OWN-YOUR-KEY"></path>
                <path d="M192.499059,43.23139 C191.8874,43.23139 191.391343,43.7274479 191.391343,44.3391063 L191.391343,46.8665142 C191.391343,47.4784653 191.8874,47.9742306 192.499059,47.9742306 C193.11101,47.9742306 193.606775,47.4784653 193.606775,46.8665142 L193.606775,44.3391063 C193.606775,43.7274479 193.11101,43.23139 192.499059,43.23139 Z M182.680038,38.0715095 L182.462885,38.0715095 C181.910929,38.0715095 181.463745,38.5189859 181.463745,39.0706492 L181.463745,42.7534769 C181.463745,43.3051402 181.910929,43.7526166 182.462885,43.7526166 L182.680038,43.7526166 C183.231994,43.7526166 183.679178,43.3051402 183.679178,42.7534769 L183.679178,39.0706492 C183.679178,38.5189859 183.231994,38.0715095 182.680038,38.0715095 Z M189.299705,43.23139 C188.687754,43.23139 188.191988,43.7274479 188.191988,44.3391063 L188.191988,46.8665142 C188.191988,47.4784653 188.687754,47.9742306 189.299705,47.9742306 C189.911363,47.9742306 190.407421,47.4784653 190.407421,46.8665142 L190.407421,44.3391063 C190.407421,43.7274479 189.911363,43.23139 189.299705,43.23139 Z M88.3771097,39.8043467 L72.4087268,39.8043467 C71.7994097,39.8043467 71.3010105,40.3027459 71.3010105,40.912063 C71.3010105,41.5213802 71.7994097,42.0197794 72.4087268,42.0197794 L87.9047572,42.0197794 C88.0297228,41.3059828 88.1880517,40.5670174 88.3771097,39.8043467 Z M178.847076,39.8043467 L150.58246,39.8843172 C150.366477,40.6364523 150.178004,41.3748323 150.0147,42.09975 L178.847076,42.0197794 C179.456394,42.0197794 179.954793,41.5213802 179.954793,40.912063 C179.954793,40.3027459 179.456394,39.8043467 178.847076,39.8043467 Z M198.305424,39.8043467 L186.337697,39.8043467 C185.72838,39.8043467 185.229981,40.3027459 185.229981,40.912063 C185.229981,41.5213802 185.72838,42.0197794 186.337697,42.0197794 L198.305424,42.0197794 C198.914449,42.0197794 199.413141,41.5213802 199.413141,40.912063 C199.413141,40.3027459 198.914449,39.8043467 198.305424,39.8043467 Z M195.513452,43.23139 C194.901794,43.23139 194.405736,43.7274479 194.405736,44.3391063 L194.405736,46.8665142 C194.405736,47.4784653 194.901794,47.9742306 195.513452,47.9742306 C196.125403,47.9742306 196.621461,47.4784653 196.621461,46.8665142 L196.621461,44.3391063 C196.621461,43.7274479 196.125403,43.23139 195.513452,43.23139 Z M64.3960011,37.6231551 C64.3960011,36.3407209 63.3526698,35.2976823 62.0705283,35.2976823 C60.7880942,35.2976823 59.7447629,36.3407209 59.7447629,37.6231551 C59.7447629,38.9055892 60.7880942,39.9489205 62.0705283,39.9489205 C63.3526698,39.9489205 64.3960011,38.9055892 64.3960011,37.6231551 Z M64.3960011,43.9615755 C64.3960011,42.6791414 63.3526698,41.6358101 62.0705283,41.6358101 C60.7880942,41.6358101 59.7447629,42.6791414 59.7447629,43.9615755 C59.7447629,45.2440097 60.7880942,46.2873409 62.0705283,46.2873409 C63.3526698,46.2873409 64.3960011,45.2440097 64.3960011,43.9615755 Z M58.9458024,40.7923653 C58.9458024,39.7504973 58.0982603,38.9029553 57.0563923,38.9029553 C56.0145243,38.9029553 55.1669823,39.7504973 55.1669823,40.7923653 C55.1669823,41.8342333 56.0145243,42.6817753 57.0563923,42.6817753 C58.0982603,42.6817753 58.9458024,41.8342333 58.9458024,40.7923653 Z M64.5227227,40.7923653 C65.469769,41.5269408 66.0831834,42.6727029 66.0831834,43.9615755 C66.0831834,46.1743744 64.2830345,47.9742306 62.0705283,47.9742306 C59.9449421,47.9742306 58.205081,46.312217 58.0707503,44.2199939 C57.7488248,44.3156936 57.4087544,44.368665 57.0563923,44.368665 C55.0844523,44.368665 53.4798,42.7643053 53.4798,40.7923653 C53.4798,38.8204253 55.0844523,37.215773 57.0563923,37.215773 C57.4087544,37.215773 57.7488248,37.269037 58.0707503,37.364444 C58.205081,35.2725136 59.9449421,33.6105 62.0705283,33.6105 C64.2830345,33.6105 66.0831834,35.4106489 66.0831834,37.6231551 C66.0831834,38.9120277 65.469769,40.0577898 64.5227227,40.7923653 Z M69.8494191,39.1795185 L69.8494191,42.6449002 C69.8494191,43.2565587 69.3533612,43.7526166 68.7417027,43.7526166 C68.1297516,43.7526166 67.6336937,43.2565587 67.6336937,42.6449002 L67.6336937,39.1795185 C67.6336937,38.5675674 68.1297516,38.0715095 68.7417027,38.0715095 C69.3533612,38.0715095 69.8494191,38.5675674 69.8494191,39.1795185 Z" id="Fill-1-Copy-4"></path>
            </g>
            <path d="M95.6023797,46.1544785 L96.0287371,48.2957402 L96.5498406,46.2492246 L99.5438172,36.0829687 L100.595499,36.0829687 L103.551577,46.2492246 L104.063206,48.3146895 L104.517987,46.1544785 L107.009809,36.0829687 L108.20361,36.0829687 L104.669581,49.878 L103.551577,49.878 L100.424956,39.0864199 L100.074395,37.7220762 L99.7333094,39.0864199 L96.5308914,49.878 L95.4128875,49.878 L91.8883328,36.0829687 L93.0821336,36.0829687 L95.6023797,46.1544785 Z M114.457484,49.878 L113.292107,49.878 L113.292107,36.0829687 L114.457484,36.0829687 L114.457484,49.878 Z M129.873305,37.0778027 L125.145475,37.0778027 L125.145475,49.878 L123.980098,49.878 L123.980098,37.0778027 L119.261742,37.0778027 L119.261742,36.0829687 L129.873305,36.0829687 L129.873305,37.0778027 Z M144.910141,49.878 L143.73529,49.878 L143.73529,43.2647227 L135.852415,43.2647227 L135.852415,49.878 L134.687038,49.878 L134.687038,36.0829687 L135.852415,36.0829687 L135.852415,42.2793633 L143.73529,42.2793633 L143.73529,36.0829687 L144.910141,36.0829687 L144.910141,49.878 Z" id="WITH"></path>
            <path d="M107.308861,90.2264385 L103.250374,96.2262437 C99.4718492,94.0786042 98.7405218,91.5570481 99.4597874,89.4170267 C100.914189,85.0906409 108.544245,82.2859494 113.073778,81.3444923 L107.308861,90.2264385 Z M162.89165,100.814181 C162.046052,105.708742 155.982764,108.240455 155.539016,107.578324 C155.276195,107.185998 162.982431,100.288539 162.89165,100.814181 Z M85.8496062,106.225496 L86.0260897,105.10819 C86.3200173,102.931983 87.3833623,100.331073 89.4376814,100.696737 C92.1725412,101.183018 88.9628264,104.262593 85.8496062,106.225496 Z M76.3207653,125.283177 C72.7409429,124.388063 78.3795282,120.695241 82.026008,117.813734 C82.026008,117.813734 79.7253738,126.135123 76.3207653,125.283177 Z M225.945152,64.6718775 C211.192906,71.718522 198.955234,83.5791039 188.859487,96.2408448 C185.214277,100.812276 181.724601,105.627483 178.539009,110.648376 C179.573152,106.806368 180.487946,102.934522 181.230701,99.023952 C183.273593,88.272423 184.733708,75.2431139 177.85466,65.8406047 C170.571223,55.8845213 157.345115,56.6285454 147.369987,62.0125627 C143.567338,64.0643424 139.543768,67.2696134 136.166457,71.1230488 C135.652877,71.1789141 135.211668,71.274139 134.986303,71.4036449 C134.986303,71.4036449 131.382357,73.9398021 120.10963,77.4669333 L120.249293,77.2269665 C121.837645,73.8744143 122.837507,71.7889884 122.543579,71.3452403 C120.500052,68.2631268 119.357353,69.0439712 119.357353,69.0439712 C117.828041,72.7494905 116.308251,76.0506213 115.190945,77.9919401 C109.778995,78.9327623 101.543944,80.2309955 97.7800197,85.5794621 C96.6900117,87.1284543 93.4441114,94.721055 102.956447,96.9321778 C102.956447,96.9321778 101.04433,100.110151 100.26539,101.440126 C98.8370164,103.879154 97.7984298,106.080119 97.0398046,108.011915 C94.8350302,108.706422 86.2025732,112.048817 86.2025732,112.048817 L86.2609779,110.402061 C97.2035915,104.306396 92.7908684,100.58691 91.6634053,99.9882631 C90.9098587,99.5889532 89.8738115,99.2969301 88.5552637,99.1083847 C88.5552637,99.1083847 83.3217018,98.1472478 82.614498,103.872805 L82.5554586,104.637779 L82.60688,107.7091 C76.5035971,113.975535 72.4857401,117.346497 70.499983,117.872139 C70.4409435,116.283787 71.3817658,113.754613 73.3230846,110.166538 C75.2644034,106.578463 77.3231663,103.402394 79.4993733,100.755141 C79.3812944,100.343769 78.1617805,98.9776092 76.7105526,98.8557213 C75.6516515,99.5026159 71.5055582,104.898695 68.1707813,111.895823 C66.0193328,116.410119 66.2059737,117.813734 66.2059737,117.813734 C66.1469342,119.460491 68.2095061,120.813319 70.7939106,120.518757 C72.4013073,120.248318 76.01795,117.048761 82.8214535,110.124004 C82.8443075,111.194332 82.7617793,112.478599 82.5554586,113.990136 C76.732137,118.048622 73.8690409,121.048208 73.1466011,124.605811 C72.9904322,125.374593 73.1066066,126.209399 74.5076827,126.750911 C75.1729875,127.007383 76.0192197,127.367334 77.1441435,127.460019 C78.7255121,127.590795 80.1799141,126.789001 81.4584674,125.818342 C85.8559545,122.479756 86.0844943,115.402004 86.0844943,115.402004 C89.6179739,113.514011 93.0676555,111.586024 96.4417921,109.651054 C94.8604235,114.303109 95.0153227,116.989721 95.0153227,116.989721 C95.1334016,118.99008 97.1915296,120.283869 101.133207,120.813319 C103.395116,121.122483 105.561166,119.146883 108.640105,115.099824 C107.934806,117.105896 108.024317,117.813734 108.024317,117.813734 C107.965278,119.460491 110.027215,120.813319 112.612254,120.518757 C113.88192,120.305453 116.40792,118.260022 120.761603,114.002833 C118.985341,117.428391 118.258457,119.480805 118.258457,119.930902 C118.200053,120.342274 121.492296,121.091376 122.317579,120.813319 C122.59627,120.853314 123.73643,119.950582 125.757103,118.141308 C126.722049,117.276666 132.563146,111.992952 133.809323,110.927068 C138.017629,107.327565 138.71658,107.637364 138.71658,107.637364 C135.835074,112.342745 134.627622,114.381193 134.246722,116.930682 C133.768058,120.132779 136.011558,121.34277 139.187626,120.577796 C141.351137,120.066756 143.964109,118.126707 147.057014,114.77479 C146.911003,115.603881 146.851328,116.420911 146.891958,117.225244 L146.950997,117.637251 C147.244925,119.695379 149.656655,120.75428 154.186187,120.872359 C156.462698,120.873629 161.016353,117.578846 161.06841,116.930682 C161.149668,115.915584 159.269928,115.13474 157.656183,115.107442 C154.892121,117.166205 152.715914,118.34255 151.127562,118.578073 L150.892039,118.578073 L150.892039,118.34255 C150.598112,116.460271 151.363085,113.990136 153.068246,110.872472 L153.24473,110.872472 C155.303493,111.1664 158.280224,110.373493 161.773709,108.04937 C168.465482,103.597923 166.405449,99.8187627 166.018201,99.3597786 C164.767581,97.8742697 162.173654,98.302147 160.891926,98.7554177 C160.223447,98.9915755 158.421157,99.9317629 155.59742,102.049565 C151.89698,105.390691 149.387486,108.578186 148.044179,111.612052 C145.240123,114.998251 142.644291,116.968137 140.285252,117.527425 C139.543133,117.703273 138.163006,117.940701 138.128725,117.401728 C138.075399,116.551687 140.069409,112.931235 143.833968,106.401979 C143.304517,104.813627 142.128807,103.990249 140.304932,103.990249 L140.069409,103.990249 C136.422929,104.166733 133.375732,107.284397 125.434608,113.342607 L132.022903,102.63742 C132.022903,102.63742 132.031791,100.96654 129.081722,100.520253 C127.175319,103.24686 125.574906,105.711281 124.227791,107.910342 C118.236873,114.045367 114.281864,117.352211 112.317692,117.872139 C112.259287,116.283787 113.200109,113.754613 115.141428,110.166538 C117.082112,106.578463 119.14151,103.402394 121.317717,100.755141 C121.199638,100.343769 119.980124,98.9776092 118.528896,98.8557213 C117.565855,99.4435765 114.054594,103.960412 110.91852,110.031319 C110.727435,110.256684 110.526828,110.494747 110.309081,110.754393 C108.779133,112.519228 107.132377,114.284064 105.367542,115.98986 C103.603341,117.695655 100.368868,119.63507 99.1918879,118.460629 C98.2351948,117.50584 99.461057,112.618897 100.77897,109.447907 C102.4708,105.377994 105.333896,100.162842 109.367623,93.8145137 C114.314241,86.5888464 117.216062,82.3297529 118.084513,80.9553398 C120.84921,80.2798776 123.596132,79.5155389 126.28084,78.6318516 C128.227872,77.9779738 130.411697,77.0752415 132.426657,76.1153742 C129.315976,81.0632613 127.530826,86.6034475 128.412609,91.979212 C129.343274,97.6539827 134.564774,101.130327 140.143685,99.3940595 C142.676668,98.606232 145.299162,96.8496495 146.354889,94.3141272 C147.138908,92.4318478 146.952902,90.3984782 144.669408,90.0340842 C143.254366,89.8080837 140.848984,91.2631205 141.447631,92.5581795 C141.768857,93.2545912 142.311639,93.5650244 142.373218,94.2309641 C142.481139,95.3920733 140.50173,97.4216339 136.11821,95.6923492 C134.261958,94.960387 133.401125,92.7670395 132.947854,90.8409567 C131.819122,86.0466991 133.856935,80.7731427 136.160109,76.647999 C141.356215,67.3413496 150.941556,60.123935 162.01685,61.1536339 C171.250494,62.0125627 176.772905,70.8976831 178.007654,79.3536565 C179.312871,88.2927377 177.621676,97.6438254 175.583228,106.3404 C173.741578,114.197726 171.307629,121.899518 168.669898,129.527035 C167.517677,132.350137 166.493691,135.217042 165.623335,138.124576 C165.007548,140.180165 169.395512,138.523886 169.872272,137.204068 C170.891178,134.384141 171.901832,131.554056 172.886458,128.713814 C177.431226,117.585194 184.008729,107.198694 191.31502,97.770792 C200.940991,85.3502875 212.653656,73.5297001 226.990086,66.6817582 C229.610676,65.4298679 228.560663,63.4225265 225.945152,64.6718775 Z M41.1123013,98.4614901 L38.2301602,95.7558325 C40.2235353,95.1063985 41.8531512,94.6474144 44.052847,93.8145137 L41.1123013,98.4614901 Z M20.2897842,96.5201713 C18.0564423,95.1133817 21.8648045,92.7810059 25.823622,93.2888721 C29.4358209,93.7523001 31.4653815,94.8143754 31.4653815,94.8143754 C23.7413703,96.6871323 21.1969603,97.0915208 20.2897842,96.5201713 Z M57.5817696,128.989332 C51.7000433,114.69607 47.3469946,105.989973 44.5238929,102.813904 L44.5238929,102.579016 C48.8401214,95.8053495 51.0379127,92.7543429 52.3678875,90.441012 C60.3083766,87.6769498 68.6989622,84.0501498 76.2864843,79.5212524 C81.0509048,76.6391113 86.6228326,72.1902028 88.9164836,68.9557295 C88.9164836,68.1907559 85.2154082,68.0028454 84.5221707,68.6389479 C84.5221707,68.6389479 76.1937987,78.759453 54.9351515,86.8148468 L54.6996285,86.8148468 C54.6996285,86.8148468 66.3627774,72.7450467 77.6412176,48.6080674 C79.8142504,43.9585517 80.4040101,39.6715255 80.4040101,36.1704224 C80.4040101,32.3468242 77.4660037,22.6059492 68.0520676,22.8884498 C68.0520676,22.8884498 57.9195007,21.9120769 40.6825194,33.7948779 C29.99003,41.1665568 23.0144867,49.1692596 23.1719253,53.6403873 C23.2201726,55.0128959 28.5991112,54.355209 28.5242009,52.4050026 C29.6421416,48.0519538 34.1126344,42.8171222 41.87664,36.6408335 C51.5819644,29.2291602 59.6995719,25.5236409 66.3462717,25.5236409 C72.9929715,25.5236409 76.2864843,28.9352325 76.2864843,35.7000113 C76.2864843,43.0526452 71.4636592,53.8752754 61.7583348,68.1685367 L47.6999616,88.9910538 C46.0608232,90.0474157 38.9430775,92.4851738 35.2889797,93.5796256 C31.6424998,91.8147903 28.5242009,90.9323726 25.8775828,90.9323726 L24.6421981,90.9323726 C20.7017907,90.9323726 16.2357417,92.9320961 16.3366801,96.5880984 C16.3665173,97.6698535 16.3347756,102.354285 34.1126344,96.7556943 C34.7595291,96.7556943 36.4069203,98.344046 38.9354595,101.578519 C38.9354595,102.049565 37.6416702,104.402256 35.0534567,108.637226 C25.5246158,127.048013 20.7601953,141.576797 20.7601953,152.223579 C20.7601953,154.752753 21.6026185,156.364593 22.7015142,157.576489 C25.5919081,160.76335 25.1132441,157.340966 25.1132441,157.340966 C25.1132441,143.047705 30.7594474,126.048151 42.112163,106.225496 C44.052847,108.931153 46.4645769,113.637169 49.3473528,120.283869 C52.346938,128.695404 55.3382703,132.119057 57.876332,132.871334 C59.8855779,133.467442 59.0526773,132.106996 59.0526773,132.106996 L57.5817696,128.989332 Z M65.0708926,105.998226 C64.8550494,104.998364 64.7775998,104.034053 65.1724658,102.837393 C63.9161316,104.616194 62.8337416,105.889669 61.8440373,107.084425 C60.3877307,108.842911 57.9867929,113.466399 56.6428518,116.384091 C56.0949911,117.573133 55.9896088,118.076555 54.95991,117.576942 C54.2247735,117.2208 53.5105866,117.055109 53.6337442,116.475507 C55.3858828,108.244899 57.268797,103.726159 58.7181204,100.502478 C55.1205227,103.829002 54.8748424,104.208632 54.5625046,104.275924 C54.2508017,104.343216 54.0095652,104.134356 53.9955989,104.072143 C53.9283066,103.75917 54.3599929,103.338911 54.3599929,103.338911 C55.533164,102.104796 58.9599917,98.2919897 60.0849155,98.0488487 C61.2720529,97.7930111 63.1175119,98.7681143 63.3739844,99.9558866 C63.3219281,100.620557 63.0406972,101.139215 62.6629716,101.808964 L60.1452246,106.658452 C62.3684092,103.418265 63.8647102,101.658508 64.8537797,100.708163 C66.2554906,99.3629527 67.0115766,99.2359861 67.2610659,99.1820254 C68.0730171,99.0074463 69.793414,100.008578 69.9959257,100.946226 C70.1171788,101.508053 69.5032954,102.294611 68.8170411,103.357956 C68.1441183,104.484149 67.0464924,106.214069 67.9263707,107.227262 C69.034154,108.502641 68.2164893,108.458203 68.1549105,108.471534 C66.7176489,108.781333 65.3940225,107.497701 65.0708926,105.998226 Z M124.159229,95.3114495 C124.788983,95.9907207 124.692488,96.4382778 124.415701,96.8426664 C124.237948,97.1029478 123.686913,97.8349101 123.482497,98.0278993 C123.210788,98.2843717 122.78672,98.4989452 122.285837,98.1072534 C121.407863,97.4203642 120.898092,96.8509192 120.493704,96.376699 C120.277861,96.1234007 120.075349,95.7037762 120.493704,94.8734149 C120.786997,94.2912732 121.119014,93.7599181 121.119014,93.7599181 C121.119014,93.7599181 121.557049,92.989231 122.229972,93.4196477 C122.90226,93.8500644 123.332676,94.4207791 124.159229,95.3114495 Z M82.3408851,95.3114495 C82.9706393,95.9907207 82.8741447,96.4382778 82.5973575,96.8426664 C82.4196044,97.1029478 81.8685694,97.8349101 81.6641533,98.0278993 C81.3924448,98.2843717 80.9683765,98.4989452 80.4674934,98.1072534 C79.5895196,97.4203642 79.0797488,96.8509192 78.6759951,96.376699 C78.4595171,96.1234007 78.2576403,95.7037762 78.6759951,94.8734149 C78.968653,94.2912732 79.3006706,93.7599181 79.3006706,93.7599181 C79.3006706,93.7599181 79.7387053,92.989231 80.4116281,93.4196477 C81.0845509,93.8500644 81.5143327,94.4207791 82.3408851,95.3114495 Z" id="Fill-3"></path>
        </g>
    </g>
</svg>