<svg xmlns="http://www.w3.org/2000/svg" xmlns:xlink="http://www.w3.org/1999/xlink" width="316" height="12" viewBox="0 0 316 12">
    <defs>
        <path id="a" d="M.562 12.225h12.526V.766H.562v11.459z"/>
    </defs>
    <g fill="none" fill-rule="evenodd">
        <path fill="#FFE5D5" d="M1.26 1.127v3.905h4.333v.641H1.26v4.916h4.447v.642H.577V.486h5.13v.64zM14.872 9.663h.029L18.079.486h.684l-3.905 11.101L10.996.486h.684zM24.95 1.127v3.905h4.333v.641H24.95v4.916h4.447v.642h-5.13V.486h5.13v.64zM37.322 5.502c.67 0 1.325-.043 1.882-.498a2.222 2.222 0 0 0 .755-1.696c0-.799-.37-1.582-1.14-1.938-.57-.257-1.297-.243-1.924-.243h-.441v4.375h.868zm3.763 5.729h-.784l-3.506-5.088h-.341v5.088h-.685V.486h1.34c.87 0 1.724.014 2.451.541.77.542 1.083 1.397 1.083 2.31 0 1.866-1.297 2.834-3.079 2.806l3.521 5.088zM45.62.486h.755l3.163 5.444L52.702.486h.755l-3.576 6.156v4.59h-.685v-4.59zM70.377 9.72l4.019-9.776 4.019 9.776L81.393.486h.684l-3.62 11.102-4.103-9.933-4.09 9.933L66.672.486h.683zM87.725 5.858c0 2.651 2.209 4.874 4.888 4.874 2.665 0 4.889-2.237 4.889-4.874 0-2.65-2.224-4.873-4.889-4.873-2.68 0-4.888 2.223-4.888 4.873m10.46 0c0 3.021-2.55 5.516-5.572 5.516-3.02 0-5.572-2.495-5.572-5.516S89.578.343 92.613.343c3.022 0 5.572 2.494 5.572 5.515"/>
        <g transform="translate(102.544 -.637)">
            <mask id="b" fill="#fff">
                <use xlink:href="#a"/>
            </mask>
            <path fill="#FFE5D5" d="M10.595 2.975h-.029l-3.748 9.25-3.733-9.25h-.029l-1.838 8.893H.562L2.87.766l3.948 9.777L10.78.766l2.308 11.102h-.655z" mask="url(#b)"/>
        </g>
        <path fill="#FFE5D5" d="M124.614 1.868l-2.11 5.187h4.204l-2.094-5.187zm-2.366 5.828l-1.44 3.535h-.698L124.614.129l4.489 11.102h-.699l-1.44-3.535h-4.716zM144.311 11.588l-9.02-9.592v9.235h-.684V.343l9.02 9.52V.486h.684zM166.805 5.046V.486h.684V11.23h-.684V5.687h-6.527v5.544h-.684V.486h.684v4.56zM174.077 11.231h.845V.486h-.845zM183.27 10.59c1.41 0 2.579-.286 3.605-1.297a4.833 4.833 0 0 0 1.424-3.42c0-1.369-.54-2.65-1.552-3.577-1.027-.926-2.138-1.17-3.478-1.17h-1.24v9.464h1.24zM181.344.486h1.938c1.568 0 2.808.256 3.991 1.354 1.126 1.055 1.71 2.493 1.71 4.033 0 1.482-.57 2.893-1.654 3.933-1.182 1.14-2.45 1.425-4.047 1.425h-1.938V.486zM195.599 1.127v3.905h4.332v.641H195.6v4.916h4.446v.642h-5.13V.486h5.13v.64zM211.391 2.253c-.484-.77-1.168-1.27-2.18-1.27-1.154 0-2.023.928-2.023 2.054 0 1.125 1.082 1.568 1.938 2.01l2.052 1.068c.855.442 1.226 1.169 1.226 2.138 0 1.781-1.625 3.12-3.364 3.12-1.496 0-2.665-.926-3.163-2.309l.598-.27c.456 1.14 1.297 1.938 2.594 1.938 1.41 0 2.65-1.111 2.65-2.536 0-1.211-1.253-1.696-2.165-2.181l-1.94-1.026c-.74-.399-1.11-1.069-1.11-1.924 0-1.596 1.14-2.722 2.75-2.722 1.083 0 2.109.585 2.622 1.511l-.485.399zM230.564 1.868l-2.11 5.187h4.204l-2.094-5.187zm-2.366 5.828l-1.44 3.535h-.698L230.564.129l4.489 11.102h-.699l-1.439-3.535h-4.717zM254.225 2.253c-.484-.77-1.17-1.27-2.18-1.27-1.155 0-2.024.928-2.024 2.054 0 1.125 1.082 1.568 1.938 2.01l2.052 1.068c.855.442 1.226 1.169 1.226 2.138 0 1.781-1.625 3.12-3.364 3.12-1.496 0-2.665-.926-3.163-2.309l.598-.27c.456 1.14 1.297 1.938 2.594 1.938 1.41 0 2.65-1.111 2.65-2.536 0-1.211-1.253-1.696-2.165-2.181l-1.939-1.026c-.74-.399-1.112-1.069-1.112-1.924 0-1.596 1.14-2.722 2.75-2.722 1.084 0 2.11.585 2.624 1.511l-.485.399zM261.966 1.127v3.905h4.332v.641h-4.332v4.916h4.446v.642h-5.13V.486h5.13v.64zM281.321 2.68c-.827-1.011-2.28-1.696-3.605-1.696-2.68 0-4.889 2.31-4.889 4.945 0 1.255.528 2.452 1.44 3.321.897.87 2.18 1.482 3.449 1.482 1.24 0 2.807-.669 3.605-1.639v.94c-1.012.842-2.252 1.34-3.577 1.34-2.993 0-5.601-2.494-5.601-5.5 0-3.05 2.565-5.53 5.615-5.53 1.297 0 2.608.513 3.563 1.397v.94zM289.148 5.502c.67 0 1.325-.043 1.881-.498a2.222 2.222 0 0 0 .755-1.696c0-.799-.37-1.582-1.14-1.938-.57-.257-1.297-.243-1.923-.243h-.442v4.375h.869zm3.762 5.729h-.784l-3.506-5.088h-.341v5.088h-.685V.486h1.34c.87 0 1.725.014 2.451.541.77.542 1.084 1.397 1.084 2.31 0 1.866-1.298 2.834-3.08 2.806l3.521 5.088zM299.51 1.127v3.905h4.333v.641h-4.332v4.916h4.446v.642h-5.13V.486h5.13v.64zM312.724 11.231h-.684V1.127h-2.78V.486h6.243v.641h-2.78z"/>
    </g>
</svg>
